<svg height="60" preserveAspectRatio="xMidYMid" viewBox="0 0 120 60" width="120" xmlns="http://www.w3.org/2000/svg"><g transform="matrix(.19563496 0 0 .19563496 9.944965 21.276831)"><g fill="#dce1e2"><path d="m54.857143 29.257143c-1.406593-1.500366-2.719414-2.719414-4.126007-3.56337-1.312821-.843956-3.188279-1.219048-5.532601-1.219048-2.90696 0-5.438828.750184-7.501832 2.156777-2.063003 1.406593-3.844688 3.188278-5.251282 5.438828-1.406593 2.156776-2.531868 4.501099-3.375824 7.12674-.843956 2.531868-1.406593 4.969963-1.781685 7.220513-.187546 1.125274-.281318 2.156776-.375091 3.282051-.09377 1.125275-.187546 2.250549-.187546 3.375824 0 1.969231.187546 3.844689.562637 5.626374.375092 1.781685.937729 3.469597 1.781685 4.87619.843956 1.406594 1.969231 2.531868 3.375824 3.375824 1.406594.843956 3.188279 1.219048 5.438828 1.219048 2.531868 0 4.782418-.468864 6.657876-1.406593s3.844688-2.156777 6.001465-3.844689l-4.87619 22.974359c-2.438096 1.031502-4.688645 1.781685-6.939195 2.250549-2.250549.468865-4.594872.750184-7.032967.750184-3.938461 0-7.595604-.656411-10.971428-1.969231-3.375824-1.312821-6.376557-3.282052-8.908425-5.907693-2.5318683-2.625641-4.5010991-5.907692-5.9076925-9.846153-1.4065934-3.938462-2.1567766-8.627107-2.1567766-13.878389 0-1.687912.093773-3.375824.1875458-4.969963.1875458-1.687912.3750916-3.469597.6564103-5.345055.9377289-6.095238 2.4380952-11.440293 4.407326-15.941392 1.969231-4.501099 4.21978-8.43956 6.845421-11.627839 2.531868-3.188278 5.251282-5.813919 8.252015-7.78315 2.90696-1.9692308 5.813919-3.5633699 8.627106-4.6886447 2.813187-1.1252747 5.532601-1.8754579 8.064469-2.3443223 2.531868-.4688645 4.688645-.6564103 6.564102-.6564103 1.969231 0 3.844689.1875458 5.81392.4688645 1.875458.2813187 3.657143.843956 5.345055 1.5003663z"/><path d="m59.827106 46.230037c.843956-4.969964 2.156777-10.0337 4.126008-15.097436s4.501099-9.564835 7.595604-13.690843c3.188279-4.032234 6.939194-7.408058 11.252747-9.9399263 4.313554-2.5318681 9.37729-3.8446887 15.003663-3.8446887 4.688642 0 8.627112.8439561 11.909162 2.6256411s5.90769 4.1260069 7.9707 7.1267399c2.063 3.000733 3.46959 6.376557 4.40732 10.315018.93773 3.844689 1.40659 7.876923 1.40659 12.002931 0 1.781685-.0938 3.469597-.18754 5.251282-.18755 1.781685-.37509 3.469597-.65641 5.157509-.84396 4.969963-2.15678 10.0337-4.12601 15.097436s-4.5011 9.564835-7.5956 13.690842c-3.18828 4.032235-6.9392 7.408059-11.252754 9.939927-4.313553 2.531868-9.377289 3.844689-15.003663 3.844689-4.688644 0-8.720879-.937729-11.909157-2.625641-3.188279-1.781685-5.81392-4.126008-7.876923-7.12674-1.969231-3.000733-3.469597-6.376557-4.313553-10.315019-.937729-3.844688-1.406594-7.970696-1.406594-12.190476 0-1.687912.09377-3.375824.187546-5.157509 0-1.687912.187546-3.375824.468864-5.063736zm22.693041 0c-.187546 1.031502-.281319 2.438095-.562638 4.21978-.187545 1.781685-.281318 3.750916-.281318 5.813919 0 1.500367.09377 2.90696.281318 4.313554.187546 1.406593.468865 2.625641.937729 3.750915.468865 1.125275 1.125275 1.969231 1.875458 2.625641.843956.656411 1.781685 1.031502 3.094506 1.031502 1.406593 0 2.625641-.375091 3.750915-1.219047 1.125275-.843956 2.063004-1.969231 2.90696-3.282052.843956-1.31282 1.594139-2.813187 2.156777-4.501099.65641-1.594139 1.125274-3.282051 1.594139-4.87619.468864-1.594139.750183-3.094506 1.031502-4.501099.281318-1.406593.468864-2.531868.562637-3.469597.187548-1.031502.375088-2.438095.562638-4.313553.28132-1.875458.37509-3.750916.37509-5.81392 0-1.406593-.0938-2.906959-.28132-4.21978-.18754-1.406593-.46886-2.625641-.937727-3.750916-.468864-1.125274-1.125274-1.96923-1.875458-2.625641-.843955-.65641-1.781685-1.031501-3.094505-1.031501-1.406593 0-2.625641.375091-3.750916 1.219047s-2.063003 1.969231-2.90696 3.282051c-.843955 1.312821-1.594139 2.813187-2.156776 4.501099-.65641 1.59414-1.125275 3.282052-1.594139 4.876191-.468865 1.594139-.843956 3.094505-1.125275 4.501099-.281319 1.500366-.468864 2.625641-.562637 3.469597z"/><path d="m135.31429 87.302564-6.09524-82.1450547h23.34945v33.7582417c-.0938 3.375824-.18754 6.657876-.28132 9.939927-.18754 3.282051-.28132 6.564102-.46886 9.939927h.18754c1.03151-3.375825 1.96923-6.657876 2.71942-9.939927.84395-3.282051 1.78168-6.564103 2.90696-9.939927l11.34652-33.7582417h24.09963l-35.07106 82.1450547z"/><path d="m197.95458 5.1575093h41.26007l-2.90696 19.4109887h-19.03589l-1.87546 11.440293h17.16044l-3.09451 19.410989h-17.06666l-1.96923 12.565568h19.03589l-2.90696 19.410989h-41.26007z"/><path d="m272.78535 87.302564-6.93919-34.227106-.28132.187546c-.18755 2.063003-.46887 4.032234-.65641 6.001465-.18755 1.969231-.46887 4.032234-.84396 6.001465l-3.37582 21.942857h-22.22418l12.75312-82.1450546h21.47399c4.31355 0 8.25201.2813187 11.90916.937729 3.65714.6564102 6.75164 1.781685 9.37728 3.2820513 2.62565 1.5941393 4.68865 3.6571433 6.09524 6.3765563 1.4066 2.719414 2.15678 6.095238 2.15678 10.221246 0 1.031502-.0938 2.063003-.18755 3.094505-.0938 1.031502-.28131 2.156777-.37509 3.282052-.75018 4.594871-2.34432 8.720879-4.96996 12.378022-2.62564 3.750915-6.18901 6.470329-10.97143 8.158241l11.25275 34.227107h-24.19341zm-3.93846-44.07326c1.40659 0 2.81319-.281318 4.03223-.843956 1.21905-.562637 2.34433-1.406593 3.18828-2.344322.93773-.937729 1.68791-2.063004 2.25055-3.375824.56264-1.312821.93773-2.531869 1.21905-3.844689.0938-.468865.0938-.843956.18755-1.219048 0-.375091.0938-.750183.0938-1.125274 0-2.625641-.75018-4.501099-2.25055-5.81392-1.50037-1.219047-3.4696-1.875458-6.00147-1.875458h-.84395l-3.28205 20.348718 1.40659.09377z"/><path d="m340.67693 87.302564v-10.502564h-14.90989l-3.4696 10.596337h-22.88059l32.44542-82.1450548h27.10037l4.68864 82.1450548h-22.97435zm.0938-27.944322.56264-19.035898c.0938-2.531868.18754-5.157509.28131-7.689377.18755-2.625641.28132-5.157509.46887-7.689377h-.18755c-.75018 2.531868-1.50036 5.157509-2.15677 7.689377-.75019 2.625641-1.50037 5.157509-2.25055 7.689377l-6.00147 19.035898z"/><path d="m369.4652 87.302564 12.75312-82.1450547h22.22417l-9.84615 62.7340657h16.69157l-2.90695 19.410989z"/><path d="m414.47619 87.302564 12.75312-82.1450547h22.22417l-9.84615 62.7340657h16.69157l-2.90696 19.410989z"/><path d="m462.95678 59.639561c.56264 1.125274 1.31282 2.250549 2.15678 3.375824.84395 1.125274 1.87545 2.063004 2.90696 2.90696 1.12527.843956 2.25054 1.594139 3.46959 2.063003 1.21905.468865 2.53187.750183 4.03224.750183 1.50036 0 3.0945-.468864 4.59487-1.406593 1.59414-.937729 2.53187-2.250549 2.81319-4.126007.0938-.281319.0938-.656411.0938-1.219048 0-1.219048-.37509-2.344322-1.21905-3.375824-.37509-.562638-.84396-1.125275-1.40659-1.594139-.56264-.468865-1.12528-1.031502-1.78169-1.500367-1.87546-1.687912-3.65714-3.375824-5.25128-4.969963-1.59414-1.687912-3.00073-3.469597-4.12601-5.438828-.84395-1.406593-1.40659-3.000733-1.87545-4.688645-.46887-1.687912-.65642-3.469597-.65642-5.438827 0-1.312821.0938-2.719414.28132-4.219781.3751-2.438095 1.21905-5.157509 2.53187-8.252014 1.31282-3.094506 3.09451-6.095238 5.5326-8.814652 2.34432-2.719414 5.34506-5.0637366 8.81465-7.0329674 3.56337-1.9692307 7.68938-2.9069597 12.37803-2.9069597 2.71941 0 5.34505.3750916 7.97069 1.1252748 2.62564.7501831 5.06374 1.7816849 7.22052 3.0007326l-3.75092 24.9435897c-.46886-1.031502-1.12527-2.063004-1.96923-3.094506-.84396-1.031501-1.68791-1.96923-2.71942-2.813186-1.0315-.843956-2.15677-1.500367-3.28205-2.063004-1.21904-.562637-2.43809-.843956-3.75091-.843956s-2.62564.468864-4.03224 1.31282c-1.40659.843956-2.25055 2.063004-2.53186 3.750916v.65641c0 1.406594.46886 2.719414 1.50036 3.938462.46887.65641 1.0315 1.219048 1.68791 1.781685s1.21905 1.031502 1.78169 1.594139c2.063 1.687912 3.93846 3.282051 5.5326 4.876191 1.59414 1.594139 2.81319 3.282051 3.75092 5.157509.75018 1.31282 1.31282 2.719414 1.68791 4.21978s.56263 3.188278.56263 5.063736c0 1.687912-.18754 3.375825-.46886 4.969964-.56264 3.844688-1.78168 7.408058-3.56337 10.69011-1.78168 3.282051-4.03223 6.189011-6.75165 8.720879-2.71941 2.531868-5.72014 4.501099-9.18974 5.907692s-7.12674 2.156777-10.97143 2.156777c-5.62637 0-11.0652-1.125275-16.12894-3.375825l4.12601-25.787545z"/></g><path d="m51.293773 25.881319c-1.406593-1.500367-2.719414-2.719414-4.126007-3.56337-1.312821-.843956-3.188279-1.219048-5.532601-1.219048-2.90696 0-5.438828.750183-7.501832 2.156777-2.063003 1.406593-3.844688 3.188278-5.251282 5.438828-1.406593 2.156776-2.531868 4.501098-3.375824 7.126739-.843956 2.531869-1.406593 4.969964-1.781685 7.220513-.187546 1.125275-.281319 2.156777-.375092 3.282052-.09377 1.125274-.187545 2.250549-.187545 3.375824 0 1.96923.187545 3.844688.562637 5.626373s.937729 3.469597 1.781685 4.876191c.843956 1.406593 1.969231 2.531868 3.375824 3.375824 1.406594.843956 3.188279 1.219048 5.438828 1.219048 2.531868 0 4.782418-.468865 6.657876-1.406594s3.844688-2.156776 6.001465-3.844688l-4.876191 22.974358c-2.438095 1.031502-4.688644 1.781686-6.939194 2.25055-2.250549.468864-4.594872.750183-7.032967.750183-3.938461 0-7.595604-.65641-10.971428-1.969231-3.375825-1.31282-6.376557-3.282051-8.9084253-5.907692-2.5318682-2.625641-4.5010989-5.907692-5.9076924-9.846154-1.3128205-4.032234-2.06300362-8.720879-2.06300362-13.972161 0-1.687912.0937729-3.375824.18754579-4.969963.18754579-1.687912.37509157-3.469597.65641023-5.345055.937729-6.095238 2.4380953-11.440293 4.407326-15.941392 1.9692308-4.501099 4.2197802-8.439561 6.8454213-11.627839 2.531868-3.188278 5.251282-5.813919 8.252015-7.7831502 2.906959-1.9692308 5.813919-3.56337 8.627106-4.6886447 2.813187-1.1252748 5.532601-1.8754579 8.064469-2.3443224 2.531868-.46886444 4.688644-.65641023 6.564102-.65641023 1.969231 0 3.844689.18754579 5.81392.46886447 1.875458.28131866 3.657143.84395606 5.345055 1.50036626z" fill="#394a56"/><path d="m56.263736 42.854213c.843956-4.969964 2.156777-10.0337 4.126008-15.097436 1.96923-5.063737 4.501099-9.564836 7.595604-13.690843 3.188278-4.032234 6.939194-7.4080585 11.252747-9.9399267 4.313553-2.5318681 9.37729-3.84468862 15.003663-3.84468862 4.688645 0 8.627102.84395602 11.909162 2.62564102 3.28205 1.781685 5.90769 4.1260073 7.97069 7.1267403 2.063 3.000732 3.4696 6.376556 4.40733 10.315018.93773 3.844689 1.40659 7.876923 1.40659 12.00293 0 1.781685-.0938 3.469597-.18754 5.251282-.18755 1.781685-.3751 3.469597-.65641 5.15751-.84396 4.969963-2.15678 10.033699-4.12601 15.097435-1.96923 5.063737-4.5011 9.564836-7.59561 13.690843-3.18827 4.032234-6.93919 7.408059-11.252744 9.939927-4.313553 2.531868-9.377289 3.844688-15.003663 3.844688-4.688645 0-8.720879-.937729-11.909157-2.625641-3.188279-1.781685-5.81392-4.126007-7.876924-7.12674-1.96923-3.000732-3.469597-6.376556-4.313553-10.315018-.937728-3.844689-1.406593-7.970696-1.406593-12.190476 0-1.687912.09377-3.375824.187546-5.157509 0-1.687912.187546-3.375825.468864-5.063736zm22.693041 0c-.187546 1.031501-.281319 2.438095-.562638 4.21978-.187546 1.781685-.281319 3.750915-.281319 5.813919 0 1.500366.09377 2.90696.281319 4.313553.187546 1.406594.468865 2.625641.937729 3.750916.468865 1.125275 1.125275 1.969231 1.875458 2.625641.843956.65641 1.781685 1.031502 3.094506 1.031502 1.406593 0 2.62564-.375092 3.750915-1.219048s2.063004-1.969231 2.90696-3.282051c.843956-1.312821 1.594139-2.813187 2.156776-4.501099.656411-1.594139 1.125275-3.282051 1.59414-4.876191.468864-1.594139.750183-3.094505 1.031502-4.501098.281318-1.406594.468864-2.531868.562637-3.469597.187546-1.031502.375091-2.438096.562637-4.313554.281319-1.875457.375092-3.750915.375092-5.813919 0-1.406593-.09377-2.90696-.281319-4.21978-.187546-1.406594-.468864-2.625641-.937729-3.750916-.468864-1.125275-1.125275-1.969231-1.875458-2.625641-.843956-.65641-1.781685-1.031502-3.094505-1.031502-1.406594 0-2.625641.375092-3.750916 1.219048s-2.063004 1.969231-2.90696 3.282051c-.843956 1.312821-1.594139 2.813187-2.156776 4.501099-.65641 1.594139-1.125275 3.282051-1.594139 4.87619-.468865 1.59414-.843956 3.094506-1.125275 4.501099-.281319 1.500367-.468864 2.625641-.562637 3.469598z" fill="#394a56"/><path d="m131.75092 83.92674-6.09524-82.145055h23.34945v33.758242c-.0938 3.375824-.18755 6.657875-.28132 9.939926-.18755 3.282052-.28132 6.564103-.46887 9.939927h.18755c1.0315-3.375824 1.96923-6.657875 2.71941-9.939927.84396-3.282051 1.78169-6.564102 2.90696-9.939926l11.34652-33.758242h24.00586l-35.07106 82.145055z" fill="#394a56"/><path d="m194.39121 1.781685h41.26007l-2.90696 19.410989h-19.0359l-1.87545 11.440293h17.06666l-3.0945 19.410989h-17.06667l-1.96923 12.565568h19.0359l-2.90696 19.410989h-41.26008z" fill="#394a56"/><path d="m269.22198 83.92674-6.9392-34.227106-.28132.187546c-.18754 2.063003-.46886 4.032234-.65641 6.001465-.18754 1.96923-.46886 4.032234-.84395 6.001465l-3.37583 21.942857h-22.22417l12.65934-82.051282h21.47399c4.31355 0 8.25202.2813187 11.90916.9377289 3.65714.6564103 6.75165 1.781685 9.37729 3.2820513 2.62564 1.5941392 4.68864 3.6571429 6.09524 6.3765568 1.40659 2.719414 2.15677 6.095238 2.15677 10.221245 0 1.031502-.0938 2.063004-.18754 3.094506-.0938 1.031502-.28132 2.156776-.37509 3.282051-.75019 4.594872-2.34433 8.720879-4.96997 12.378022-2.62564 3.750916-6.18901 6.47033-10.97143 8.158242l11.25275 34.227106h-24.09963zm-3.93846-44.07326c1.40659 0 2.81318-.281319 4.03223-.843956 1.21905-.562638 2.34432-1.406594 3.18828-2.344322.93773-.93773 1.68791-2.063004 2.25055-3.375825.56264-1.31282.93773-2.531868 1.21905-3.844688.0938-.468865.0938-.843956.18754-1.219048 0-.375092.0938-.750183.0938-1.125275 0-2.625641-.75019-4.501099-2.25055-5.813919-1.50037-1.219048-3.4696-1.875458-6.00147-1.875458h-.84396l-3.18827 20.254945 1.31282.187546z" fill="#394a56"/><path d="m337.11355 83.92674v-10.502564h-14.90989l-3.46959 10.596337h-22.88059l32.44542-82.1450551h27.10037l4.68864 82.1450551h-22.97436zm.0938-27.944322.56263-19.035898c.0938-2.531868.18755-5.157509.28132-7.689377.18755-2.625641.28132-5.157509.46887-7.689377h-.18755c-.75018 2.531868-1.50037 5.157509-2.15678 7.689377-.75018 2.625641-1.50036 5.157509-2.25055 7.689377l-6.00146 19.035898z" fill="#394a56"/><path d="m365.90183 83.92674 12.75311-82.145055h22.22418l-9.84615 62.734066h16.69157l-2.90696 19.410989z" fill="#394a56"/><path d="m410.91282 83.92674 12.75311-82.145055h22.22418l-9.84615 62.734066h16.69157l-2.90696 19.410989z" fill="#394a56"/><path d="m459.39341 56.263736c.56263 1.125275 1.31282 2.25055 2.15677 3.375824.84396 1.125275 1.87546 2.063004 2.90696 2.90696 1.12528.843956 2.25055 1.594139 3.4696 2.063004 1.21905.468864 2.53187.750183 4.03223.750183 1.50037 0 3.09451-.468864 4.59488-1.406593 1.59413-.937729 2.53186-2.25055 2.81318-4.126008.0938-.281318.0938-.65641.0938-1.219047 0-1.219048-.3751-2.344323-1.21905-3.375825-.37509-.562637-.84396-1.125274-1.40659-1.594139-.56264-.468864-1.12528-1.031502-1.78169-1.500366-1.87546-1.687912-3.65714-3.375824-5.25128-4.969963-1.59414-1.687913-3.00074-3.469597-4.12601-5.438828-.84396-1.406594-1.40659-3.000733-1.87546-4.688645-.46886-1.687912-.65641-3.469597-.65641-5.438828 0-1.31282.0938-2.719414.28132-4.21978.37509-2.438095 1.21905-5.157509 2.53187-8.252015 1.31282-3.094505 3.0945-6.095238 5.5326-8.814652 2.34432-2.7194136 5.34506-5.0637359 8.81465-7.0329667 3.56337-1.9692308 7.68938-2.90695972 12.37802-2.90695972 2.71942 0 5.34506.37509157 7.9707 1.12527472 2.62564.7501831 5.06374 1.781685 7.22051 3.0007326l-3.93846 24.9435901c-.46886-1.031502-1.12527-2.063004-1.96923-3.094506s-1.68791-1.969231-2.71941-2.813187-2.15678-1.500366-3.28206-2.063003c-1.21904-.562638-2.43809-.843956-3.75091-.843956s-2.62564.468864-4.03223 1.31282c-1.4066.843956-2.25055 2.063004-2.53187 3.750916v.65641c0 1.406594.46886 2.719414 1.50036 3.938462.46887.65641 1.03151 1.219047 1.68791 1.781685.65641.562637 1.21905 1.031502 1.78169 1.594139 2.063 1.687912 3.93846 3.282051 5.5326 4.87619 1.59414 1.59414 2.81319 3.282052 3.75092 5.15751.75018 1.31282 1.31282 2.719413 1.68791 4.21978.37509 1.500366.56264 3.188278.56264 5.063736 0 1.687912-.18755 3.375824-.46887 4.969963-.56264 3.844689-1.78168 7.408059-3.56337 10.69011-1.78168 3.282052-4.03223 6.189011-6.75165 8.720879-2.71941 2.531868-5.72014 4.501099-9.18974 5.907693-3.4696 1.406593-7.12674 2.156776-10.97143 2.156776-5.62637 0-11.0652-1.125274-16.12894-3.375824l4.31356-25.787546z" fill="#394a56"/></g></svg>