<?xml version="1.0" encoding="UTF-8" standalone="no"?>
<svg width="295px" height="45px" viewBox="0 0 295 45" version="1.1" xmlns="http://www.w3.org/2000/svg" xmlns:xlink="http://www.w3.org/1999/xlink">
    <!-- Generator: Sketch 3.8.3 (29802) - http://www.bohemiancoding.com/sketch -->
    <title>Artboard</title>
    <desc>Created with Sketch.</desc>
    <defs></defs>
    <g id="Page-1" stroke="none" stroke-width="1" fill="none" fill-rule="evenodd">
        <g id="Artboard">
            <g id="Tracker_Horizontal">
                <path d="M58.229,22.394 C59.407,22.394 60.483,22.36 61.42,21.561 C62.322,20.798 62.772,19.687 62.772,18.542 C62.772,17.329 62.184,16.185 61.211,15.525 C60.205,14.796 59.164,14.762 58.021,14.762 L55.418,14.762 L55.418,22.394 L58.229,22.394 L58.229,22.394 Z M57.881,10.46 C60.101,10.46 62.635,10.737 64.473,12.09 C66.554,13.617 67.525,15.975 67.525,18.542 C67.525,20.729 66.694,22.845 65.131,24.371 C63.328,26.209 61.315,26.661 58.818,26.661 L55.418,26.661 L55.418,31.275 L58.124,31.275 L58.124,35.229 L48.029,35.229 L48.029,31.275 L50.7,31.275 L50.7,14.414 L48.029,14.414 L48.029,10.46 L57.881,10.46 L57.881,10.46 Z" id="Fill-1" fill="#517A9E"></path>
                <path d="M71.693,14.936 L75.925,14.936 L75.925,10.46 L71.693,10.46 L71.693,14.936 Z M75.926,31.275 L78.319,31.275 L78.319,35.229 L69.266,35.229 L69.266,31.275 L71.693,31.275 L71.693,20.661 L69.3,20.661 L69.3,16.704 L75.926,16.704 L75.926,31.275 L75.926,31.275 Z" id="Fill-2" fill="#517A9E"></path>
                <polyline id="Fill-3" fill="#517A9E" points="91.046 35.229 86.605 35.229 80.915 20.661 78.658 20.661 78.658 16.704 87.299 16.704 87.299 20.661 85.425 20.661 88.824 30.025 88.86 30.025 92.502 20.661 90.524 20.661 90.524 16.704 99.06 16.704 99.06 20.661 96.874 20.661 91.046 35.229"></polyline>
                <polyline id="Fill-4" fill="#517A9E" points="126.123 31.275 129.489 31.275 129.489 35.229 121.892 35.229 121.892 20.661 118.977 20.661 118.977 16.704 121.892 16.704 121.892 10.46 126.123 10.46 126.123 16.704 129.281 16.704 129.281 20.661 126.123 20.661 126.123 31.275"></polyline>
                <path d="M146.217,25.863 C146.217,22.811 143.685,20.347 140.631,20.347 C137.476,20.347 135.046,22.948 135.046,26.071 C135.046,29.089 137.578,31.587 140.563,31.587 C143.754,31.587 146.217,29.02 146.217,25.863 L146.217,25.863 Z M146.147,32.731 C144.795,34.778 142.608,35.716 140.181,35.716 C134.872,35.716 130.674,31.31 130.674,26.071 C130.674,20.694 134.977,16.219 140.389,16.219 C142.782,16.219 144.864,17.329 146.147,19.341 L146.147,16.704 L152.773,16.704 L152.773,20.661 L150.449,20.661 L150.449,31.275 L152.773,31.275 L152.773,35.229 L146.147,35.229 L146.147,32.731 L146.147,32.731 Z" id="Fill-5" fill="#517A9E"></path>
                <polyline id="Fill-6" fill="#517A9E" points="161.971 31.275 164.366 31.275 164.366 35.229 155.172 35.229 155.172 31.275 157.739 31.275 157.739 14.414 155.346 14.414 155.346 10.46 161.971 10.46 161.971 31.275"></polyline>
                <polyline id="Fill-7" fill="#DE752C" points="177.158 31.275 179.865 31.275 179.865 35.229 169.736 35.229 169.736 31.275 172.442 31.275 172.442 14.658 168.799 14.658 168.799 18.266 165.052 18.266 165.052 10.46 184.55 10.46 184.55 18.266 180.802 18.266 180.802 14.658 177.158 14.658 177.158 31.275"></polyline>
                <path d="M192.673,19.861 C193.748,17.676 195.829,16.6 198.223,16.496 L198.223,20.833 C196.87,20.901 195.622,21.249 194.58,22.185 C193.193,23.365 192.985,24.855 192.985,26.592 L192.985,31.275 L195.379,31.275 L195.379,35.229 L186.358,35.229 L186.358,31.275 L188.752,31.275 L188.752,20.661 L186.358,20.661 L186.358,16.704 L192.673,16.704 L192.673,19.861" id="Fill-8" fill="#DE752C"></path>
                <path d="M214.64,25.863 C214.64,22.811 212.105,20.347 209.053,20.347 C205.896,20.347 203.467,22.948 203.467,26.071 C203.467,29.089 206,31.587 208.982,31.587 C212.175,31.587 214.64,29.02 214.64,25.863 L214.64,25.863 Z M214.569,32.731 C213.217,34.778 211.031,35.716 208.603,35.716 C203.293,35.716 199.098,31.31 199.098,26.071 C199.098,20.694 203.397,16.219 208.811,16.219 C211.204,16.219 213.286,17.329 214.569,19.341 L214.569,16.704 L221.195,16.704 L221.195,20.661 L218.871,20.661 L218.871,31.275 L221.195,31.275 L221.195,35.229 L214.569,35.229 L214.569,32.731 L214.569,32.731 Z" id="Fill-9" fill="#DE752C"></path>
                <path d="M241.344,28.985 C240.199,32.905 236.21,35.716 232.15,35.716 C226.772,35.716 222.367,31.379 222.367,25.966 C222.367,20.833 226.427,16.149 231.698,16.149 C233.781,16.149 235.618,16.982 237.008,18.473 L237.008,16.704 L240.65,16.704 L240.65,22.879 L236.694,22.879 C236.174,22.117 235.48,21.492 234.718,21.041 C233.919,20.589 233.018,20.347 232.081,20.347 C228.925,20.347 226.599,22.879 226.599,25.966 C226.599,29.123 229.096,31.553 232.186,31.553 C233.988,31.553 235.826,30.615 236.625,28.985 L241.344,28.985" id="Fill-10" fill="#DE752C"></path>
                <path d="M277.561,24.302 C276.832,21.631 274.474,19.931 271.732,19.931 C269.234,19.931 266.841,21.874 266.32,24.302 L277.561,24.302 L277.561,24.302 Z M280.788,29.783 C279.33,33.322 275.896,35.716 272.045,35.716 C266.633,35.716 262.295,31.483 262.295,26.035 C262.295,20.555 266.424,16.149 271.94,16.149 C274.508,16.149 277.075,17.294 278.879,19.133 C280.718,21.076 281.481,23.434 281.481,26.071 L281.342,27.562 L266.355,27.562 C266.91,30.13 269.27,32.003 271.906,32.003 C273.745,32.003 275.34,31.31 276.382,29.783 L280.788,29.783 L280.788,29.783 Z" id="Fill-11" fill="#DE752C"></path>
                <path d="M289.057,19.861 C290.132,17.676 292.213,16.6 294.607,16.496 L294.607,20.833 C293.254,20.901 292.006,21.249 290.966,22.185 C289.576,23.365 289.369,24.855 289.369,26.592 L289.369,31.275 L291.763,31.275 L291.763,35.229 L282.741,35.229 L282.741,31.275 L285.137,31.275 L285.137,20.661 L282.741,20.661 L282.741,16.704 L289.057,16.704 L289.057,19.861" id="Fill-12" fill="#DE752C"></path>
                <path d="M16.336,10.741 L21.297,19.334 C22.085,19.124 22.945,19.185 23.728,19.551 L26.335,15.033 L21.976,7.485 L16.285,10.771 L16.336,10.741" id="Fill-13" fill="#DE752C"></path>
                <path d="M8.856,21.858 L18.781,21.858 C18.86,21.563 18.975,21.272 19.135,20.995 C19.404,20.527 19.766,20.147 20.181,19.858 L17.573,15.341 L8.853,15.341 L8.853,21.913 L8.856,21.913 L8.856,21.858" id="Fill-14" fill="#DE752C"></path>
                <path d="M25.306,24.559 C25.035,25.025 24.675,25.404 24.26,25.693 L26.871,30.215 L35.589,30.215 L35.589,23.698 L25.658,23.698 C25.578,23.992 25.466,24.283 25.306,24.559" id="Fill-15" fill="#DE752C"></path>
                <path d="M24.735,20.258 C25.339,20.858 25.695,21.645 25.768,22.47 L30.982,22.47 L35.343,14.92 L29.7,11.662 L24.735,20.258" id="Fill-16" fill="#DE752C"></path>
                <path d="M14.74,33.894 L19.705,25.293 C19.106,24.693 18.746,23.908 18.674,23.086 L13.456,23.086 L9.096,30.633 L14.786,33.92 L14.74,33.894" id="Fill-17" fill="#DE752C"></path>
                <path d="M28.105,34.812 L23.145,26.219 C22.358,26.432 21.499,26.371 20.715,26.002 L18.105,30.521 L22.464,38.07 L28.154,34.784 L28.105,34.812" id="Fill-18" fill="#DE752C"></path>
                <path d="M22.222,0.556 C9.969,0.556 0,10.524 0,22.774 C0,35.03 9.969,45 22.222,45 C34.475,45 44.443,35.03 44.443,22.774 C44.443,10.524 34.475,0.556 22.222,0.556 L22.222,0.556 Z M22.222,5.055 C32.008,5.055 39.943,12.988 39.943,22.774 C39.943,32.564 32.008,40.5 22.222,40.5 C12.434,40.5 4.5,32.564 4.5,22.774 C4.5,12.988 12.434,5.055 22.222,5.055 L22.222,5.055 Z" id="Fill-19" fill="#517A9E"></path>
                <path d="M108.953,16.186 C103.561,16.186 99.191,20.555 99.191,25.945 C99.191,31.338 103.561,35.707 108.953,35.707 C114.344,35.707 118.713,31.338 118.713,25.945 C118.713,20.555 114.344,16.186 108.953,16.186 L108.953,16.186 Z M108.953,20.344 C112.042,20.344 114.555,22.857 114.555,25.945 C114.555,29.035 112.042,31.549 108.953,31.549 C105.863,31.549 103.35,29.035 103.35,25.945 C103.35,22.857 105.863,20.344 108.953,20.344 L108.953,20.344 Z" id="Fill-20" fill="#517A9E"></path>
                <polyline id="Fill-21" fill="#DE752C" points="259.127 31.275 253.713 25.586 258.814 20.661 261.068 20.661 261.068 16.704 251.944 16.704 251.944 20.243 253.854 20.243 249.101 24.995 249.101 10.46 242.439 10.46 242.439 14.414 244.866 14.414 244.866 31.275 242.439 31.275 242.439 35.229 249.101 35.229 249.101 26.418 253.506 31.275 251.944 31.275 251.944 35.229 262.04 35.229 262.04 31.275 259.127 31.275"></polyline>
            </g>
        </g>
    </g>
</svg>